# xmcd
#
# Track frame offsets:
#	150
#	13577
#	30035
#	45252
#	66110
#	83922
#	100562
#	116765
#	133375
#	151935
#	171895
#
# Disc length: 2522 seconds
#
# Revision: 1
# Processed by: cddbd v1.5.1PL0 Copyright (c) Steve Scherf et al.
# Submitted via: CDex 1.50Beta5
#
DISCID=7c09d80b
DTITLE=坂上香織 - ARE YOU READY?
DYEAR=1990
DGENRE=Pop
TTITLE0=OPENING
TTITLE1=BABY I MISS YOU
TTITLE2=いつも いつも
TTITLE3=マジック
TTITLE4=最高のBIG NEWS
TTITLE5=素敵な音楽
TTITLE6=ステキな夏の迎え方
TTITLE7=Dear Best Friend
TTITLE8=砂時計
TTITLE9=サガンはお好き
TTITLE10=瞳のダイアリー
EXTD=
EXTT0=
EXTT1=
EXTT2=
EXTT3=
EXTT4=
EXTT5=
EXTT6=
EXTT7=
EXTT8=
EXTT9=
EXTT10=
PLAYORDER=
